<svg xmlns="http://www.w3.org/2000/svg" viewBox="0 0 184.4 144.5"><path fill="#FFF" d="M.1 0h184.1v1H.1z"/><path fill="#FFF" d="M0 .5h1v143.9H0z"/><path fill="#FFF" d="M.5 143.5h183.7v1H.5z"/><path fill="#FFF" d="M183.4.1h1V144h-1zM83.2 129H20.5V16.5h62.7V129zm-61.7-1h60.7V17.5H21.5V128zM129.8 51.1H95.4V16.7h34.4v34.4zm-33.4-1h32.4V17.7H96.4v32.4zM171.8 128.4h-34.4V94h34.4v34.4zm-33.4-1h32.4V95h-32.4v32.4zM171.8 90.4h-34.4V56h34.4v34.4zm-33.4-1h32.4V57h-32.4v32.4zM129.8 128.8H95.4V94.4h34.4v34.4zm-33.4-1h32.4V95.4H96.4v32.4zM129.8 90.4H95.4V56h34.4v34.4zm-33.4-1h32.4V57H96.4v32.4zM171.8 51.1h-34.4V16.7h34.4v34.4zm-33.4-1h32.4V17.7h-32.4v32.4z"/></svg>